<mxfile host="app.diagrams.net" modified="2022-10-22T14:58:28.416Z" agent="5.0 (Windows NT 10.0; Win64; x64) AppleWebKit/537.36 (KHTML, like Gecko) Chrome/106.0.0.0 Safari/537.36" etag="eVD0-J66epgeLQ-9KdGh" version="20.5.1" type="github">
  <diagram id="KfZb-Jq6p3Ua2yuw38om" name="Page-1">
    <mxGraphModel dx="2062" dy="1118" grid="1" gridSize="10" guides="1" tooltips="1" connect="1" arrows="1" fold="1" page="1" pageScale="1" pageWidth="1700" pageHeight="1100" math="0" shadow="0">
      <root>
        <mxCell id="0" />
        <mxCell id="1" parent="0" />
        <mxCell id="veIapIsxb33gpfjiFNoJ-1" value="CAMERA" style="rounded=0;whiteSpace=wrap;html=1;" vertex="1" parent="1">
          <mxGeometry x="260" y="130" width="120" height="60" as="geometry" />
        </mxCell>
        <mxCell id="veIapIsxb33gpfjiFNoJ-2" value="Retail Price" style="ellipse;whiteSpace=wrap;html=1;" vertex="1" parent="1">
          <mxGeometry x="70" y="110" width="70" height="40" as="geometry" />
        </mxCell>
        <mxCell id="veIapIsxb33gpfjiFNoJ-3" value="Manufacturer" style="ellipse;whiteSpace=wrap;html=1;" vertex="1" parent="1">
          <mxGeometry x="100" y="70" width="80" height="40" as="geometry" />
        </mxCell>
        <mxCell id="veIapIsxb33gpfjiFNoJ-4" value="&amp;nbsp;Model Number" style="ellipse;whiteSpace=wrap;html=1;" vertex="1" parent="1">
          <mxGeometry x="170" y="40" width="70" height="40" as="geometry" />
        </mxCell>
        <mxCell id="veIapIsxb33gpfjiFNoJ-5" value="Date Of Product Release" style="ellipse;whiteSpace=wrap;html=1;" vertex="1" parent="1">
          <mxGeometry x="240" y="25" width="80" height="50" as="geometry" />
        </mxCell>
        <mxCell id="veIapIsxb33gpfjiFNoJ-6" value="Sensor Size" style="ellipse;whiteSpace=wrap;html=1;" vertex="1" parent="1">
          <mxGeometry x="320" y="27.5" width="70" height="45" as="geometry" />
        </mxCell>
        <mxCell id="veIapIsxb33gpfjiFNoJ-7" value="Pixel Number" style="ellipse;whiteSpace=wrap;html=1;" vertex="1" parent="1">
          <mxGeometry x="390" y="25" width="70" height="45" as="geometry" />
        </mxCell>
        <mxCell id="veIapIsxb33gpfjiFNoJ-8" value="Number Currently In Stock" style="ellipse;whiteSpace=wrap;html=1;" vertex="1" parent="1">
          <mxGeometry x="450" y="50" width="80" height="45" as="geometry" />
        </mxCell>
        <mxCell id="veIapIsxb33gpfjiFNoJ-9" value="CamReplaceLens" style="rounded=0;whiteSpace=wrap;html=1;" vertex="1" parent="1">
          <mxGeometry x="30" y="180" width="100" height="40" as="geometry" />
        </mxCell>
        <mxCell id="veIapIsxb33gpfjiFNoJ-10" value="CamNonReplaceLens" style="rounded=0;whiteSpace=wrap;html=1;" vertex="1" parent="1">
          <mxGeometry x="110" y="260" width="120" height="40" as="geometry" />
        </mxCell>
        <mxCell id="veIapIsxb33gpfjiFNoJ-11" value="d" style="ellipse;whiteSpace=wrap;html=1;aspect=fixed;" vertex="1" parent="1">
          <mxGeometry x="170" y="180" width="40" height="40" as="geometry" />
        </mxCell>
        <mxCell id="veIapIsxb33gpfjiFNoJ-12" value="Focal Length Range" style="ellipse;whiteSpace=wrap;html=1;" vertex="1" parent="1">
          <mxGeometry x="120" y="340" width="80" height="40" as="geometry" />
        </mxCell>
        <mxCell id="veIapIsxb33gpfjiFNoJ-13" value="Aperture Range" style="ellipse;whiteSpace=wrap;html=1;" vertex="1" parent="1">
          <mxGeometry x="200" y="330" width="80" height="40" as="geometry" />
        </mxCell>
        <mxCell id="veIapIsxb33gpfjiFNoJ-14" style="edgeStyle=orthogonalEdgeStyle;rounded=0;orthogonalLoop=1;jettySize=auto;html=1;exitX=0.5;exitY=1;exitDx=0;exitDy=0;" edge="1" parent="1" source="veIapIsxb33gpfjiFNoJ-10" target="veIapIsxb33gpfjiFNoJ-10">
          <mxGeometry relative="1" as="geometry" />
        </mxCell>
        <mxCell id="veIapIsxb33gpfjiFNoJ-15" value="" style="endArrow=none;html=1;rounded=0;entryX=-0.017;entryY=0.633;entryDx=0;entryDy=0;entryPerimeter=0;" edge="1" parent="1" target="veIapIsxb33gpfjiFNoJ-1">
          <mxGeometry width="50" height="50" relative="1" as="geometry">
            <mxPoint x="210" y="190" as="sourcePoint" />
            <mxPoint x="260" y="160" as="targetPoint" />
          </mxGeometry>
        </mxCell>
        <mxCell id="veIapIsxb33gpfjiFNoJ-18" value="" style="endArrow=none;html=1;rounded=0;entryX=0.5;entryY=1;entryDx=0;entryDy=0;exitX=0.687;exitY=0.017;exitDx=0;exitDy=0;exitPerimeter=0;" edge="1" parent="1" source="veIapIsxb33gpfjiFNoJ-10" target="veIapIsxb33gpfjiFNoJ-11">
          <mxGeometry width="50" height="50" relative="1" as="geometry">
            <mxPoint x="160" y="290" as="sourcePoint" />
            <mxPoint x="210" y="240" as="targetPoint" />
          </mxGeometry>
        </mxCell>
        <mxCell id="veIapIsxb33gpfjiFNoJ-19" value="" style="endArrow=none;html=1;rounded=0;entryX=0;entryY=0.5;entryDx=0;entryDy=0;exitX=1;exitY=0.5;exitDx=0;exitDy=0;" edge="1" parent="1" source="veIapIsxb33gpfjiFNoJ-9" target="veIapIsxb33gpfjiFNoJ-11">
          <mxGeometry width="50" height="50" relative="1" as="geometry">
            <mxPoint x="60" y="280" as="sourcePoint" />
            <mxPoint x="110" y="230" as="targetPoint" />
          </mxGeometry>
        </mxCell>
        <mxCell id="veIapIsxb33gpfjiFNoJ-20" value="" style="endArrow=none;html=1;rounded=0;exitX=0.5;exitY=0;exitDx=0;exitDy=0;" edge="1" parent="1" source="veIapIsxb33gpfjiFNoJ-12" target="veIapIsxb33gpfjiFNoJ-10">
          <mxGeometry width="50" height="50" relative="1" as="geometry">
            <mxPoint x="120" y="380" as="sourcePoint" />
            <mxPoint x="170" y="330" as="targetPoint" />
          </mxGeometry>
        </mxCell>
        <mxCell id="veIapIsxb33gpfjiFNoJ-21" value="" style="endArrow=none;html=1;rounded=0;exitX=0.317;exitY=0.033;exitDx=0;exitDy=0;exitPerimeter=0;entryX=0.893;entryY=1.067;entryDx=0;entryDy=0;entryPerimeter=0;" edge="1" parent="1" source="veIapIsxb33gpfjiFNoJ-13" target="veIapIsxb33gpfjiFNoJ-10">
          <mxGeometry width="50" height="50" relative="1" as="geometry">
            <mxPoint x="190" y="350" as="sourcePoint" />
            <mxPoint x="200" y="290" as="targetPoint" />
          </mxGeometry>
        </mxCell>
        <mxCell id="veIapIsxb33gpfjiFNoJ-22" value="" style="endArrow=none;html=1;rounded=0;entryX=0.981;entryY=0.817;entryDx=0;entryDy=0;entryPerimeter=0;exitX=0;exitY=0.25;exitDx=0;exitDy=0;" edge="1" parent="1" source="veIapIsxb33gpfjiFNoJ-1" target="veIapIsxb33gpfjiFNoJ-2">
          <mxGeometry width="50" height="50" relative="1" as="geometry">
            <mxPoint x="190" y="190" as="sourcePoint" />
            <mxPoint x="240" y="140" as="targetPoint" />
          </mxGeometry>
        </mxCell>
        <mxCell id="veIapIsxb33gpfjiFNoJ-23" value="" style="endArrow=none;html=1;rounded=0;entryX=0.95;entryY=0.817;entryDx=0;entryDy=0;entryPerimeter=0;exitX=0;exitY=0.122;exitDx=0;exitDy=0;exitPerimeter=0;" edge="1" parent="1" source="veIapIsxb33gpfjiFNoJ-1" target="veIapIsxb33gpfjiFNoJ-3">
          <mxGeometry width="50" height="50" relative="1" as="geometry">
            <mxPoint x="310" y="330" as="sourcePoint" />
            <mxPoint x="360" y="280" as="targetPoint" />
          </mxGeometry>
        </mxCell>
        <mxCell id="veIapIsxb33gpfjiFNoJ-24" value="" style="endArrow=none;html=1;rounded=0;entryX=1;entryY=1;entryDx=0;entryDy=0;exitX=0.111;exitY=-0.033;exitDx=0;exitDy=0;exitPerimeter=0;" edge="1" parent="1" source="veIapIsxb33gpfjiFNoJ-1" target="veIapIsxb33gpfjiFNoJ-4">
          <mxGeometry width="50" height="50" relative="1" as="geometry">
            <mxPoint x="440" y="290" as="sourcePoint" />
            <mxPoint x="490" y="240" as="targetPoint" />
          </mxGeometry>
        </mxCell>
        <mxCell id="veIapIsxb33gpfjiFNoJ-25" value="" style="endArrow=none;html=1;rounded=0;entryX=0.5;entryY=1;entryDx=0;entryDy=0;exitX=0.25;exitY=0;exitDx=0;exitDy=0;" edge="1" parent="1" source="veIapIsxb33gpfjiFNoJ-1" target="veIapIsxb33gpfjiFNoJ-5">
          <mxGeometry width="50" height="50" relative="1" as="geometry">
            <mxPoint x="400" y="420" as="sourcePoint" />
            <mxPoint x="450" y="370" as="targetPoint" />
          </mxGeometry>
        </mxCell>
        <mxCell id="veIapIsxb33gpfjiFNoJ-26" value="" style="endArrow=none;html=1;rounded=0;entryX=0.5;entryY=1;entryDx=0;entryDy=0;exitX=0.933;exitY=0.011;exitDx=0;exitDy=0;exitPerimeter=0;" edge="1" parent="1" source="veIapIsxb33gpfjiFNoJ-1" target="veIapIsxb33gpfjiFNoJ-7">
          <mxGeometry width="50" height="50" relative="1" as="geometry">
            <mxPoint x="330" y="270" as="sourcePoint" />
            <mxPoint x="380" y="220" as="targetPoint" />
          </mxGeometry>
        </mxCell>
        <mxCell id="veIapIsxb33gpfjiFNoJ-27" value="" style="endArrow=none;html=1;rounded=0;entryX=0;entryY=1;entryDx=0;entryDy=0;exitX=1.022;exitY=0.122;exitDx=0;exitDy=0;exitPerimeter=0;" edge="1" parent="1" source="veIapIsxb33gpfjiFNoJ-1" target="veIapIsxb33gpfjiFNoJ-8">
          <mxGeometry width="50" height="50" relative="1" as="geometry">
            <mxPoint x="300" y="270" as="sourcePoint" />
            <mxPoint x="350" y="220" as="targetPoint" />
          </mxGeometry>
        </mxCell>
        <mxCell id="veIapIsxb33gpfjiFNoJ-28" value="" style="endArrow=none;html=1;rounded=0;entryX=0.5;entryY=1;entryDx=0;entryDy=0;" edge="1" parent="1" source="veIapIsxb33gpfjiFNoJ-1" target="veIapIsxb33gpfjiFNoJ-6">
          <mxGeometry width="50" height="50" relative="1" as="geometry">
            <mxPoint x="370" y="290" as="sourcePoint" />
            <mxPoint x="420" y="240" as="targetPoint" />
          </mxGeometry>
        </mxCell>
        <mxCell id="veIapIsxb33gpfjiFNoJ-29" value="d" style="ellipse;whiteSpace=wrap;html=1;aspect=fixed;" vertex="1" parent="1">
          <mxGeometry x="440" y="140" width="40" height="40" as="geometry" />
        </mxCell>
        <mxCell id="veIapIsxb33gpfjiFNoJ-30" value="CamOptRangeFinder" style="rounded=0;whiteSpace=wrap;html=1;" vertex="1" parent="1">
          <mxGeometry x="520" y="110" width="120" height="40" as="geometry" />
        </mxCell>
        <mxCell id="veIapIsxb33gpfjiFNoJ-31" value="CamOptViewFinder" style="rounded=0;whiteSpace=wrap;html=1;" vertex="1" parent="1">
          <mxGeometry x="520" y="170" width="110" height="40" as="geometry" />
        </mxCell>
        <mxCell id="veIapIsxb33gpfjiFNoJ-32" value="" style="endArrow=none;html=1;rounded=0;exitX=1;exitY=0.5;exitDx=0;exitDy=0;entryX=0;entryY=0.5;entryDx=0;entryDy=0;" edge="1" parent="1" source="veIapIsxb33gpfjiFNoJ-1" target="veIapIsxb33gpfjiFNoJ-29">
          <mxGeometry width="50" height="50" relative="1" as="geometry">
            <mxPoint x="400" y="260" as="sourcePoint" />
            <mxPoint x="450" y="210" as="targetPoint" />
          </mxGeometry>
        </mxCell>
        <mxCell id="veIapIsxb33gpfjiFNoJ-33" value="" style="endArrow=none;html=1;rounded=0;entryX=1;entryY=1;entryDx=0;entryDy=0;exitX=0;exitY=0.25;exitDx=0;exitDy=0;" edge="1" parent="1" source="veIapIsxb33gpfjiFNoJ-31" target="veIapIsxb33gpfjiFNoJ-29">
          <mxGeometry width="50" height="50" relative="1" as="geometry">
            <mxPoint x="470" y="250" as="sourcePoint" />
            <mxPoint x="520" y="200" as="targetPoint" />
          </mxGeometry>
        </mxCell>
        <mxCell id="veIapIsxb33gpfjiFNoJ-34" value="" style="endArrow=none;html=1;rounded=0;exitX=1;exitY=0;exitDx=0;exitDy=0;entryX=0;entryY=0.5;entryDx=0;entryDy=0;" edge="1" parent="1" source="veIapIsxb33gpfjiFNoJ-29" target="veIapIsxb33gpfjiFNoJ-30">
          <mxGeometry width="50" height="50" relative="1" as="geometry">
            <mxPoint x="490" y="160" as="sourcePoint" />
            <mxPoint x="540" y="110" as="targetPoint" />
          </mxGeometry>
        </mxCell>
        <mxCell id="veIapIsxb33gpfjiFNoJ-35" value="CamElectViewFinder" style="rounded=0;whiteSpace=wrap;html=1;" vertex="1" parent="1">
          <mxGeometry x="260" y="240" width="120" height="40" as="geometry" />
        </mxCell>
        <mxCell id="veIapIsxb33gpfjiFNoJ-36" value="" style="endArrow=none;html=1;rounded=0;entryX=0.5;entryY=1;entryDx=0;entryDy=0;exitX=0.5;exitY=0;exitDx=0;exitDy=0;" edge="1" parent="1" source="veIapIsxb33gpfjiFNoJ-35" target="veIapIsxb33gpfjiFNoJ-1">
          <mxGeometry width="50" height="50" relative="1" as="geometry">
            <mxPoint x="300" y="260" as="sourcePoint" />
            <mxPoint x="350" y="210" as="targetPoint" />
          </mxGeometry>
        </mxCell>
        <mxCell id="veIapIsxb33gpfjiFNoJ-37" value="&lt;font style=&quot;font-size: 14px;&quot;&gt;U&lt;/font&gt;" style="text;html=1;strokeColor=none;fillColor=none;align=center;verticalAlign=middle;whiteSpace=wrap;rounded=0;" vertex="1" parent="1">
          <mxGeometry x="155" y="220" width="70" height="30" as="geometry" />
        </mxCell>
        <mxCell id="veIapIsxb33gpfjiFNoJ-38" value="&lt;font style=&quot;font-size: 14px;&quot;&gt;U&lt;/font&gt;" style="text;html=1;strokeColor=none;fillColor=none;align=center;verticalAlign=middle;whiteSpace=wrap;rounded=0;rotation=90;" vertex="1" parent="1">
          <mxGeometry x="130" y="190" width="50" height="20" as="geometry" />
        </mxCell>
        <mxCell id="veIapIsxb33gpfjiFNoJ-40" value="&lt;font style=&quot;font-size: 14px;&quot;&gt;U&lt;/font&gt;" style="text;html=1;strokeColor=none;fillColor=none;align=center;verticalAlign=middle;whiteSpace=wrap;rounded=0;" vertex="1" parent="1">
          <mxGeometry x="285" y="200" width="70" height="30" as="geometry" />
        </mxCell>
        <mxCell id="veIapIsxb33gpfjiFNoJ-41" value="&lt;font style=&quot;font-size: 18px;&quot;&gt;U&lt;/font&gt;" style="text;html=1;strokeColor=none;fillColor=none;align=center;verticalAlign=middle;whiteSpace=wrap;rounded=0;rotation=-85;" vertex="1" parent="1">
          <mxGeometry x="460" y="160" width="70" height="30" as="geometry" />
        </mxCell>
        <mxCell id="veIapIsxb33gpfjiFNoJ-43" value="U" style="text;html=1;strokeColor=none;fillColor=none;align=center;verticalAlign=middle;whiteSpace=wrap;rounded=0;fontSize=18;rotation=-105;" vertex="1" parent="1">
          <mxGeometry x="480" y="120" width="60" height="30" as="geometry" />
        </mxCell>
        <mxCell id="veIapIsxb33gpfjiFNoJ-44" value="&lt;span style=&quot;font-size: 12px;&quot;&gt;LENS&lt;/span&gt;" style="rounded=0;whiteSpace=wrap;html=1;fontSize=18;" vertex="1" parent="1">
          <mxGeometry x="260" y="670" width="115" height="60" as="geometry" />
        </mxCell>
        <mxCell id="veIapIsxb33gpfjiFNoJ-45" value="Manufacturer" style="ellipse;whiteSpace=wrap;html=1;fontSize=12;" vertex="1" parent="1">
          <mxGeometry x="170" y="830" width="80" height="40" as="geometry" />
        </mxCell>
        <mxCell id="veIapIsxb33gpfjiFNoJ-46" value="ModelNum" style="ellipse;whiteSpace=wrap;html=1;fontSize=12;" vertex="1" parent="1">
          <mxGeometry x="260" y="830" width="80" height="40" as="geometry" />
        </mxCell>
        <mxCell id="veIapIsxb33gpfjiFNoJ-48" value="FocalLengthMin" style="ellipse;whiteSpace=wrap;html=1;fontSize=12;" vertex="1" parent="1">
          <mxGeometry x="350" y="822.5" width="110" height="55" as="geometry" />
        </mxCell>
        <mxCell id="veIapIsxb33gpfjiFNoJ-49" value="ApertureRange" style="ellipse;whiteSpace=wrap;html=1;fontSize=12;" vertex="1" parent="1">
          <mxGeometry x="97.5" y="800" width="85" height="40" as="geometry" />
        </mxCell>
        <mxCell id="veIapIsxb33gpfjiFNoJ-50" value="RetailPrice" style="ellipse;whiteSpace=wrap;html=1;fontSize=12;" vertex="1" parent="1">
          <mxGeometry x="55" y="760" width="90" height="40" as="geometry" />
        </mxCell>
        <mxCell id="veIapIsxb33gpfjiFNoJ-51" value="NumInStock" style="ellipse;whiteSpace=wrap;html=1;fontSize=12;" vertex="1" parent="1">
          <mxGeometry x="65" y="710" width="80" height="40" as="geometry" />
        </mxCell>
        <mxCell id="veIapIsxb33gpfjiFNoJ-52" value="" style="endArrow=none;html=1;rounded=0;fontSize=12;" edge="1" parent="1" target="veIapIsxb33gpfjiFNoJ-44">
          <mxGeometry width="50" height="50" relative="1" as="geometry">
            <mxPoint x="150" y="720" as="sourcePoint" />
            <mxPoint x="180" y="620" as="targetPoint" />
          </mxGeometry>
        </mxCell>
        <mxCell id="veIapIsxb33gpfjiFNoJ-53" value="" style="endArrow=none;html=1;rounded=0;fontSize=12;entryX=-0.029;entryY=0.889;entryDx=0;entryDy=0;entryPerimeter=0;exitX=1;exitY=0.5;exitDx=0;exitDy=0;" edge="1" parent="1" source="veIapIsxb33gpfjiFNoJ-50" target="veIapIsxb33gpfjiFNoJ-44">
          <mxGeometry width="50" height="50" relative="1" as="geometry">
            <mxPoint x="180" y="790" as="sourcePoint" />
            <mxPoint x="230" y="740" as="targetPoint" />
          </mxGeometry>
        </mxCell>
        <mxCell id="veIapIsxb33gpfjiFNoJ-54" value="" style="endArrow=none;html=1;rounded=0;fontSize=12;entryX=0.25;entryY=1;entryDx=0;entryDy=0;exitX=0.6;exitY=0.033;exitDx=0;exitDy=0;exitPerimeter=0;" edge="1" parent="1" source="veIapIsxb33gpfjiFNoJ-45" target="veIapIsxb33gpfjiFNoJ-44">
          <mxGeometry width="50" height="50" relative="1" as="geometry">
            <mxPoint x="240" y="830" as="sourcePoint" />
            <mxPoint x="290" y="780" as="targetPoint" />
          </mxGeometry>
        </mxCell>
        <mxCell id="veIapIsxb33gpfjiFNoJ-55" value="" style="endArrow=none;html=1;rounded=0;fontSize=12;entryX=0.104;entryY=1;entryDx=0;entryDy=0;entryPerimeter=0;exitX=1;exitY=0;exitDx=0;exitDy=0;" edge="1" parent="1" source="veIapIsxb33gpfjiFNoJ-49" target="veIapIsxb33gpfjiFNoJ-44">
          <mxGeometry width="50" height="50" relative="1" as="geometry">
            <mxPoint x="220" y="820" as="sourcePoint" />
            <mxPoint x="270" y="770" as="targetPoint" />
          </mxGeometry>
        </mxCell>
        <mxCell id="veIapIsxb33gpfjiFNoJ-56" value="" style="endArrow=none;html=1;rounded=0;fontSize=12;entryX=0.5;entryY=1;entryDx=0;entryDy=0;exitX=0.5;exitY=0;exitDx=0;exitDy=0;" edge="1" parent="1" source="veIapIsxb33gpfjiFNoJ-46" target="veIapIsxb33gpfjiFNoJ-44">
          <mxGeometry width="50" height="50" relative="1" as="geometry">
            <mxPoint x="320" y="820" as="sourcePoint" />
            <mxPoint x="370" y="770" as="targetPoint" />
          </mxGeometry>
        </mxCell>
        <mxCell id="veIapIsxb33gpfjiFNoJ-58" value="" style="endArrow=none;html=1;rounded=0;fontSize=12;entryX=0.75;entryY=1;entryDx=0;entryDy=0;exitX=0;exitY=0;exitDx=0;exitDy=0;" edge="1" parent="1" source="veIapIsxb33gpfjiFNoJ-48" target="veIapIsxb33gpfjiFNoJ-44">
          <mxGeometry width="50" height="50" relative="1" as="geometry">
            <mxPoint x="490" y="780" as="sourcePoint" />
            <mxPoint x="540" y="730" as="targetPoint" />
          </mxGeometry>
        </mxCell>
        <mxCell id="veIapIsxb33gpfjiFNoJ-59" value="FocalLengthMax" style="ellipse;whiteSpace=wrap;html=1;fontSize=12;" vertex="1" parent="1">
          <mxGeometry x="440" y="790" width="100" height="40" as="geometry" />
        </mxCell>
        <mxCell id="veIapIsxb33gpfjiFNoJ-60" value="isPrimeLens" style="ellipse;whiteSpace=wrap;html=1;fontSize=12;" vertex="1" parent="1">
          <mxGeometry x="460" y="750" width="90" height="30" as="geometry" />
        </mxCell>
        <mxCell id="veIapIsxb33gpfjiFNoJ-61" value="" style="endArrow=none;html=1;rounded=0;fontSize=12;entryX=0.916;entryY=1.044;entryDx=0;entryDy=0;entryPerimeter=0;" edge="1" parent="1" target="veIapIsxb33gpfjiFNoJ-44">
          <mxGeometry width="50" height="50" relative="1" as="geometry">
            <mxPoint x="390" y="820" as="sourcePoint" />
            <mxPoint x="356.25" y="740" as="targetPoint" />
          </mxGeometry>
        </mxCell>
        <mxCell id="veIapIsxb33gpfjiFNoJ-62" value="" style="endArrow=none;html=1;rounded=0;fontSize=12;entryX=1;entryY=0.75;entryDx=0;entryDy=0;exitX=0.06;exitY=0.2;exitDx=0;exitDy=0;exitPerimeter=0;" edge="1" parent="1" source="veIapIsxb33gpfjiFNoJ-59" target="veIapIsxb33gpfjiFNoJ-44">
          <mxGeometry width="50" height="50" relative="1" as="geometry">
            <mxPoint x="385.75398162973033" y="850.7337728000496" as="sourcePoint" />
            <mxPoint x="366.25" y="750" as="targetPoint" />
            <Array as="points" />
          </mxGeometry>
        </mxCell>
        <mxCell id="veIapIsxb33gpfjiFNoJ-63" value="" style="endArrow=none;html=1;rounded=0;fontSize=12;exitX=1;exitY=0.5;exitDx=0;exitDy=0;entryX=0;entryY=0.5;entryDx=0;entryDy=0;" edge="1" parent="1" source="veIapIsxb33gpfjiFNoJ-44" target="veIapIsxb33gpfjiFNoJ-60">
          <mxGeometry width="50" height="50" relative="1" as="geometry">
            <mxPoint x="440" y="750" as="sourcePoint" />
            <mxPoint x="490" y="700" as="targetPoint" />
          </mxGeometry>
        </mxCell>
        <mxCell id="veIapIsxb33gpfjiFNoJ-64" value="CUSTOMER" style="rounded=0;whiteSpace=wrap;html=1;fontSize=12;" vertex="1" parent="1">
          <mxGeometry x="810" y="480" width="120" height="60" as="geometry" />
        </mxCell>
        <mxCell id="veIapIsxb33gpfjiFNoJ-65" value="d" style="ellipse;whiteSpace=wrap;html=1;aspect=fixed;fontSize=12;" vertex="1" parent="1">
          <mxGeometry x="850" y="590" width="40" height="40" as="geometry" />
        </mxCell>
        <mxCell id="veIapIsxb33gpfjiFNoJ-66" value="DOMESTIC_CUSTOMER" style="rounded=0;whiteSpace=wrap;html=1;fontSize=12;" vertex="1" parent="1">
          <mxGeometry x="730" y="699" width="140" height="30" as="geometry" />
        </mxCell>
        <mxCell id="veIapIsxb33gpfjiFNoJ-67" value="FOREIGN_CUSTOMER" style="rounded=0;whiteSpace=wrap;html=1;fontSize=12;" vertex="1" parent="1">
          <mxGeometry x="880" y="697" width="140" height="32" as="geometry" />
        </mxCell>
        <mxCell id="veIapIsxb33gpfjiFNoJ-68" value="" style="endArrow=none;html=1;rounded=0;fontSize=12;entryX=0;entryY=1;entryDx=0;entryDy=0;exitX=0.681;exitY=-0.006;exitDx=0;exitDy=0;exitPerimeter=0;" edge="1" parent="1" source="veIapIsxb33gpfjiFNoJ-66" target="veIapIsxb33gpfjiFNoJ-65">
          <mxGeometry width="50" height="50" relative="1" as="geometry">
            <mxPoint x="930" y="840" as="sourcePoint" />
            <mxPoint x="980" y="790" as="targetPoint" />
          </mxGeometry>
        </mxCell>
        <mxCell id="veIapIsxb33gpfjiFNoJ-69" value="" style="endArrow=none;html=1;rounded=0;fontSize=12;entryX=1;entryY=1;entryDx=0;entryDy=0;exitX=0.357;exitY=-0.005;exitDx=0;exitDy=0;exitPerimeter=0;" edge="1" parent="1" source="veIapIsxb33gpfjiFNoJ-67" target="veIapIsxb33gpfjiFNoJ-65">
          <mxGeometry width="50" height="50" relative="1" as="geometry">
            <mxPoint x="1070" y="860" as="sourcePoint" />
            <mxPoint x="1120" y="810" as="targetPoint" />
          </mxGeometry>
        </mxCell>
        <mxCell id="veIapIsxb33gpfjiFNoJ-70" value="" style="endArrow=none;html=1;rounded=0;fontSize=12;entryX=0.5;entryY=1;entryDx=0;entryDy=0;exitX=0.5;exitY=0;exitDx=0;exitDy=0;" edge="1" parent="1" source="veIapIsxb33gpfjiFNoJ-65" target="veIapIsxb33gpfjiFNoJ-64">
          <mxGeometry width="50" height="50" relative="1" as="geometry">
            <mxPoint x="960" y="830" as="sourcePoint" />
            <mxPoint x="1010" y="780" as="targetPoint" />
          </mxGeometry>
        </mxCell>
        <mxCell id="veIapIsxb33gpfjiFNoJ-71" value="" style="endArrow=none;html=1;rounded=0;fontSize=12;entryX=0.578;entryY=1.033;entryDx=0;entryDy=0;entryPerimeter=0;" edge="1" parent="1" source="veIapIsxb33gpfjiFNoJ-65" target="veIapIsxb33gpfjiFNoJ-64">
          <mxGeometry width="50" height="50" relative="1" as="geometry">
            <mxPoint x="1049" y="770" as="sourcePoint" />
            <mxPoint x="1120" y="770" as="targetPoint" />
          </mxGeometry>
        </mxCell>
        <mxCell id="veIapIsxb33gpfjiFNoJ-72" value="&lt;font style=&quot;font-size: 14px;&quot;&gt;U&lt;/font&gt;" style="text;html=1;strokeColor=none;fillColor=none;align=center;verticalAlign=middle;whiteSpace=wrap;rounded=0;rotation=30;" vertex="1" parent="1">
          <mxGeometry x="800" y="660" width="70" height="30" as="geometry" />
        </mxCell>
        <mxCell id="veIapIsxb33gpfjiFNoJ-73" value="&lt;font style=&quot;font-size: 14px;&quot;&gt;U&lt;/font&gt;" style="text;html=1;strokeColor=none;fillColor=none;align=center;verticalAlign=middle;whiteSpace=wrap;rounded=0;rotation=-30;" vertex="1" parent="1">
          <mxGeometry x="880" y="660" width="70" height="30" as="geometry" />
        </mxCell>
        <mxCell id="veIapIsxb33gpfjiFNoJ-75" value="PURCHASEORDER" style="rounded=0;whiteSpace=wrap;html=1;fontSize=12;" vertex="1" parent="1">
          <mxGeometry x="470" y="480" width="120" height="60" as="geometry" />
        </mxCell>
        <mxCell id="veIapIsxb33gpfjiFNoJ-76" value="&lt;u&gt;Number&lt;/u&gt;" style="ellipse;whiteSpace=wrap;html=1;fontSize=12;" vertex="1" parent="1">
          <mxGeometry x="960" y="470" width="90" height="40" as="geometry" />
        </mxCell>
        <mxCell id="veIapIsxb33gpfjiFNoJ-77" value="Name" style="ellipse;whiteSpace=wrap;html=1;fontSize=12;" vertex="1" parent="1">
          <mxGeometry x="960" y="510" width="90" height="35" as="geometry" />
        </mxCell>
        <mxCell id="veIapIsxb33gpfjiFNoJ-78" value="EmailAddress" style="ellipse;whiteSpace=wrap;html=1;fontSize=12;" vertex="1" parent="1">
          <mxGeometry x="960" y="545" width="90" height="40" as="geometry" />
        </mxCell>
        <mxCell id="veIapIsxb33gpfjiFNoJ-79" value="ShippingAddress" style="ellipse;whiteSpace=wrap;html=1;fontSize=12;" vertex="1" parent="1">
          <mxGeometry x="960" y="420" width="90" height="50" as="geometry" />
        </mxCell>
        <mxCell id="veIapIsxb33gpfjiFNoJ-82" value="" style="endArrow=none;html=1;rounded=0;fontSize=12;entryX=0;entryY=0.5;entryDx=0;entryDy=0;exitX=1;exitY=0;exitDx=0;exitDy=0;" edge="1" parent="1" source="veIapIsxb33gpfjiFNoJ-64" target="veIapIsxb33gpfjiFNoJ-79">
          <mxGeometry width="50" height="50" relative="1" as="geometry">
            <mxPoint x="890" y="490" as="sourcePoint" />
            <mxPoint x="940" y="440" as="targetPoint" />
          </mxGeometry>
        </mxCell>
        <mxCell id="veIapIsxb33gpfjiFNoJ-83" value="" style="endArrow=none;html=1;rounded=0;fontSize=12;entryX=0;entryY=0.5;entryDx=0;entryDy=0;exitX=1;exitY=0.25;exitDx=0;exitDy=0;" edge="1" parent="1" source="veIapIsxb33gpfjiFNoJ-64" target="veIapIsxb33gpfjiFNoJ-76">
          <mxGeometry width="50" height="50" relative="1" as="geometry">
            <mxPoint x="700" y="540" as="sourcePoint" />
            <mxPoint x="750" y="490" as="targetPoint" />
          </mxGeometry>
        </mxCell>
        <mxCell id="veIapIsxb33gpfjiFNoJ-84" value="" style="endArrow=none;html=1;rounded=0;fontSize=12;entryX=0;entryY=0.5;entryDx=0;entryDy=0;exitX=1;exitY=0.75;exitDx=0;exitDy=0;" edge="1" parent="1" source="veIapIsxb33gpfjiFNoJ-64" target="veIapIsxb33gpfjiFNoJ-77">
          <mxGeometry width="50" height="50" relative="1" as="geometry">
            <mxPoint x="760" y="610" as="sourcePoint" />
            <mxPoint x="810" y="560" as="targetPoint" />
          </mxGeometry>
        </mxCell>
        <mxCell id="veIapIsxb33gpfjiFNoJ-85" value="" style="endArrow=none;html=1;rounded=0;fontSize=12;entryX=0;entryY=0.5;entryDx=0;entryDy=0;" edge="1" parent="1" source="veIapIsxb33gpfjiFNoJ-64" target="veIapIsxb33gpfjiFNoJ-78">
          <mxGeometry width="50" height="50" relative="1" as="geometry">
            <mxPoint x="720" y="620" as="sourcePoint" />
            <mxPoint x="770" y="570" as="targetPoint" />
          </mxGeometry>
        </mxCell>
        <mxCell id="veIapIsxb33gpfjiFNoJ-86" value="SellingPrice" style="ellipse;whiteSpace=wrap;html=1;fontSize=12;" vertex="1" parent="1">
          <mxGeometry x="570" y="410" width="80" height="40" as="geometry" />
        </mxCell>
        <mxCell id="veIapIsxb33gpfjiFNoJ-87" value="" style="endArrow=none;html=1;rounded=0;fontSize=12;exitX=1;exitY=0;exitDx=0;exitDy=0;" edge="1" parent="1" source="veIapIsxb33gpfjiFNoJ-75">
          <mxGeometry width="50" height="50" relative="1" as="geometry">
            <mxPoint x="590" y="520" as="sourcePoint" />
            <mxPoint x="610" y="450" as="targetPoint" />
          </mxGeometry>
        </mxCell>
        <mxCell id="veIapIsxb33gpfjiFNoJ-88" value="PLACES" style="rhombus;whiteSpace=wrap;html=1;fontSize=12;" vertex="1" parent="1">
          <mxGeometry x="660" y="470" width="80" height="80" as="geometry" />
        </mxCell>
        <mxCell id="veIapIsxb33gpfjiFNoJ-89" value="" style="endArrow=none;html=1;rounded=0;fontSize=12;entryX=0;entryY=0.5;entryDx=0;entryDy=0;exitX=1;exitY=0.5;exitDx=0;exitDy=0;" edge="1" parent="1" source="veIapIsxb33gpfjiFNoJ-88" target="veIapIsxb33gpfjiFNoJ-64">
          <mxGeometry width="50" height="50" relative="1" as="geometry">
            <mxPoint x="750" y="580" as="sourcePoint" />
            <mxPoint x="800" y="530" as="targetPoint" />
          </mxGeometry>
        </mxCell>
        <mxCell id="veIapIsxb33gpfjiFNoJ-90" value="" style="endArrow=none;html=1;rounded=0;fontSize=12;entryX=0;entryY=0.5;entryDx=0;entryDy=0;exitX=1;exitY=0.5;exitDx=0;exitDy=0;" edge="1" parent="1" source="veIapIsxb33gpfjiFNoJ-75" target="veIapIsxb33gpfjiFNoJ-88">
          <mxGeometry width="50" height="50" relative="1" as="geometry">
            <mxPoint x="580" y="580" as="sourcePoint" />
            <mxPoint x="630" y="530" as="targetPoint" />
          </mxGeometry>
        </mxCell>
        <mxCell id="veIapIsxb33gpfjiFNoJ-91" value="RELATED" style="rhombus;whiteSpace=wrap;html=1;fontSize=12;" vertex="1" parent="1">
          <mxGeometry x="40" y="430" width="80" height="80" as="geometry" />
        </mxCell>
        <mxCell id="veIapIsxb33gpfjiFNoJ-92" value="" style="endArrow=none;html=1;rounded=0;fontSize=12;entryX=0.427;entryY=0.983;entryDx=0;entryDy=0;entryPerimeter=0;exitX=0.5;exitY=0;exitDx=0;exitDy=0;" edge="1" parent="1" source="veIapIsxb33gpfjiFNoJ-91" target="veIapIsxb33gpfjiFNoJ-9">
          <mxGeometry width="50" height="50" relative="1" as="geometry">
            <mxPoint x="50" y="400" as="sourcePoint" />
            <mxPoint x="100" y="350" as="targetPoint" />
          </mxGeometry>
        </mxCell>
        <mxCell id="veIapIsxb33gpfjiFNoJ-93" value="" style="endArrow=none;html=1;rounded=0;fontSize=12;entryX=0.5;entryY=1;entryDx=0;entryDy=0;exitX=0;exitY=0;exitDx=0;exitDy=0;" edge="1" parent="1" source="veIapIsxb33gpfjiFNoJ-44" target="veIapIsxb33gpfjiFNoJ-91">
          <mxGeometry width="50" height="50" relative="1" as="geometry">
            <mxPoint x="140" y="640" as="sourcePoint" />
            <mxPoint x="190" y="590" as="targetPoint" />
          </mxGeometry>
        </mxCell>
        <mxCell id="veIapIsxb33gpfjiFNoJ-94" value="INCLUDES" style="rhombus;whiteSpace=wrap;html=1;fontSize=12;" vertex="1" parent="1">
          <mxGeometry x="340" y="465" width="80" height="80" as="geometry" />
        </mxCell>
        <mxCell id="veIapIsxb33gpfjiFNoJ-95" value="" style="endArrow=none;html=1;rounded=0;fontSize=12;entryX=0.5;entryY=1;entryDx=0;entryDy=0;exitX=0.75;exitY=0;exitDx=0;exitDy=0;" edge="1" parent="1" source="veIapIsxb33gpfjiFNoJ-44" target="veIapIsxb33gpfjiFNoJ-94">
          <mxGeometry width="50" height="50" relative="1" as="geometry">
            <mxPoint x="350" y="640" as="sourcePoint" />
            <mxPoint x="400" y="590" as="targetPoint" />
          </mxGeometry>
        </mxCell>
        <mxCell id="veIapIsxb33gpfjiFNoJ-96" value="" style="endArrow=none;html=1;rounded=0;fontSize=12;exitX=0.5;exitY=0;exitDx=0;exitDy=0;" edge="1" parent="1" source="veIapIsxb33gpfjiFNoJ-94">
          <mxGeometry width="50" height="50" relative="1" as="geometry">
            <mxPoint x="380" y="460" as="sourcePoint" />
            <mxPoint x="380" y="180" as="targetPoint" />
            <Array as="points">
              <mxPoint x="410" y="465" />
              <mxPoint x="410" y="180" />
            </Array>
          </mxGeometry>
        </mxCell>
        <mxCell id="veIapIsxb33gpfjiFNoJ-97" value="" style="endArrow=none;html=1;rounded=0;fontSize=12;exitX=1;exitY=0.5;exitDx=0;exitDy=0;" edge="1" parent="1" source="veIapIsxb33gpfjiFNoJ-94">
          <mxGeometry width="50" height="50" relative="1" as="geometry">
            <mxPoint x="420" y="560" as="sourcePoint" />
            <mxPoint x="470" y="510" as="targetPoint" />
          </mxGeometry>
        </mxCell>
        <mxCell id="veIapIsxb33gpfjiFNoJ-98" value="" style="endArrow=none;html=1;rounded=0;fontSize=12;exitX=1;exitY=0.75;exitDx=0;exitDy=0;entryX=0.142;entryY=0.667;entryDx=0;entryDy=0;entryPerimeter=0;" edge="1" parent="1" source="veIapIsxb33gpfjiFNoJ-75" target="veIapIsxb33gpfjiFNoJ-88">
          <mxGeometry width="50" height="50" relative="1" as="geometry">
            <mxPoint x="600" y="600" as="sourcePoint" />
            <mxPoint x="650" y="550" as="targetPoint" />
          </mxGeometry>
        </mxCell>
        <mxCell id="veIapIsxb33gpfjiFNoJ-99" value="M" style="text;html=1;strokeColor=none;fillColor=none;align=center;verticalAlign=middle;whiteSpace=wrap;rounded=0;fontSize=12;" vertex="1" parent="1">
          <mxGeometry x="75" y="500" width="60" height="30" as="geometry" />
        </mxCell>
        <mxCell id="veIapIsxb33gpfjiFNoJ-100" value="1" style="text;html=1;strokeColor=none;fillColor=none;align=center;verticalAlign=middle;whiteSpace=wrap;rounded=0;fontSize=12;" vertex="1" parent="1">
          <mxGeometry x="65" y="400" width="60" height="30" as="geometry" />
        </mxCell>
        <mxCell id="veIapIsxb33gpfjiFNoJ-101" value="1" style="text;html=1;strokeColor=none;fillColor=none;align=center;verticalAlign=middle;whiteSpace=wrap;rounded=0;fontSize=12;" vertex="1" parent="1">
          <mxGeometry x="740" y="510" width="60" height="30" as="geometry" />
        </mxCell>
        <mxCell id="veIapIsxb33gpfjiFNoJ-102" value="1" style="text;html=1;strokeColor=none;fillColor=none;align=center;verticalAlign=middle;whiteSpace=wrap;rounded=0;fontSize=12;" vertex="1" parent="1">
          <mxGeometry x="390" y="440" width="60" height="30" as="geometry" />
        </mxCell>
        <mxCell id="veIapIsxb33gpfjiFNoJ-105" value="1" style="text;html=1;strokeColor=none;fillColor=none;align=center;verticalAlign=middle;whiteSpace=wrap;rounded=0;fontSize=12;" vertex="1" parent="1">
          <mxGeometry x="360" y="550" width="60" height="30" as="geometry" />
        </mxCell>
        <mxCell id="veIapIsxb33gpfjiFNoJ-106" value="1" style="text;html=1;strokeColor=none;fillColor=none;align=center;verticalAlign=middle;whiteSpace=wrap;rounded=0;fontSize=12;" vertex="1" parent="1">
          <mxGeometry x="395" y="500" width="60" height="30" as="geometry" />
        </mxCell>
        <mxCell id="veIapIsxb33gpfjiFNoJ-107" value="?" style="text;html=1;strokeColor=none;fillColor=none;align=center;verticalAlign=middle;whiteSpace=wrap;rounded=0;fontSize=12;" vertex="1" parent="1">
          <mxGeometry x="600" y="520" width="60" height="30" as="geometry" />
        </mxCell>
      </root>
    </mxGraphModel>
  </diagram>
</mxfile>
